<mxfile host="app.diagrams.net" agent="Mozilla/5.0 (Macintosh; Intel Mac OS X 10_15_7) AppleWebKit/537.36 (KHTML, like Gecko) Chrome/133.0.0.0 Safari/537.36" version="26.0.15">
  <diagram name="第 1 页" id="USMosS6vwKU6ZGfOITGC">
    <mxGraphModel dx="724" dy="430" grid="1" gridSize="10" guides="1" tooltips="1" connect="1" arrows="1" fold="1" page="1" pageScale="1" pageWidth="827" pageHeight="1169" math="0" shadow="0">
      <root>
        <mxCell id="0" />
        <mxCell id="1" parent="0" />
        <mxCell id="SzQSZSZH6rv7SFYVgMxc-15" style="rounded=0;orthogonalLoop=1;jettySize=auto;html=1;entryX=0;entryY=0.5;entryDx=0;entryDy=0;fontSize=12;startSize=8;endSize=8;" edge="1" parent="1">
          <mxGeometry relative="1" as="geometry">
            <mxPoint x="86.00000000000011" y="436" as="sourcePoint" />
            <mxPoint x="272" y="436" as="targetPoint" />
          </mxGeometry>
        </mxCell>
        <mxCell id="SzQSZSZH6rv7SFYVgMxc-11" value="" style="shape=cube;whiteSpace=wrap;html=1;boundedLbl=1;backgroundOutline=1;darkOpacity=0.05;darkOpacity2=0.1;flipH=1;fillColor=#dae8fc;strokeColor=#6c8ebf;size=20;" vertex="1" parent="1">
          <mxGeometry x="20" y="400" width="66" height="66" as="geometry" />
        </mxCell>
        <mxCell id="SzQSZSZH6rv7SFYVgMxc-12" value="" style="shape=cube;whiteSpace=wrap;html=1;boundedLbl=1;backgroundOutline=1;darkOpacity=0.05;darkOpacity2=0.1;flipH=1;fillColor=#dae8fc;strokeColor=#6c8ebf;size=20;" vertex="1" parent="1">
          <mxGeometry x="610" y="400" width="66" height="66" as="geometry" />
        </mxCell>
        <mxCell id="SzQSZSZH6rv7SFYVgMxc-13" value="" style="ellipse;whiteSpace=wrap;html=1;aspect=fixed;" vertex="1" parent="1">
          <mxGeometry x="271" y="420" width="30" height="30" as="geometry" />
        </mxCell>
        <mxCell id="SzQSZSZH6rv7SFYVgMxc-14" value="" style="ellipse;whiteSpace=wrap;html=1;aspect=fixed;" vertex="1" parent="1">
          <mxGeometry x="510" y="420" width="30" height="30" as="geometry" />
        </mxCell>
        <mxCell id="SzQSZSZH6rv7SFYVgMxc-16" style="rounded=0;orthogonalLoop=1;jettySize=auto;html=1;entryX=0;entryY=0.5;entryDx=0;entryDy=0;fontSize=12;startSize=8;endSize=8;" edge="1" parent="1">
          <mxGeometry relative="1" as="geometry">
            <mxPoint x="301" y="436" as="sourcePoint" />
            <mxPoint x="509" y="436" as="targetPoint" />
          </mxGeometry>
        </mxCell>
        <mxCell id="SzQSZSZH6rv7SFYVgMxc-17" style="rounded=0;orthogonalLoop=1;jettySize=auto;html=1;entryX=0;entryY=0;entryDx=66;entryDy=43;fontSize=12;startSize=8;endSize=8;entryPerimeter=0;" edge="1" parent="1">
          <mxGeometry relative="1" as="geometry">
            <mxPoint x="540" y="436" as="sourcePoint" />
            <mxPoint x="610" y="436" as="targetPoint" />
          </mxGeometry>
        </mxCell>
        <mxCell id="SzQSZSZH6rv7SFYVgMxc-22" style="edgeStyle=none;curved=1;rounded=0;orthogonalLoop=1;jettySize=auto;html=1;entryX=0;entryY=0;entryDx=0;entryDy=0;fontSize=12;startSize=8;endSize=8;exitX=0;exitY=0;exitDx=100;exitDy=10.5;exitPerimeter=0;" edge="1" parent="1" source="SzQSZSZH6rv7SFYVgMxc-18" target="SzQSZSZH6rv7SFYVgMxc-13">
          <mxGeometry relative="1" as="geometry" />
        </mxCell>
        <mxCell id="SzQSZSZH6rv7SFYVgMxc-18" value="" style="shape=cube;whiteSpace=wrap;html=1;boundedLbl=1;backgroundOutline=1;darkOpacity=0.05;darkOpacity2=0.1;size=5;" vertex="1" parent="1">
          <mxGeometry x="130" y="377" width="100" height="16" as="geometry" />
        </mxCell>
        <mxCell id="SzQSZSZH6rv7SFYVgMxc-20" value="" style="edgeStyle=none;curved=1;rounded=0;orthogonalLoop=1;jettySize=auto;html=1;fontSize=12;startSize=8;endSize=8;exitX=0.018;exitY=0.459;exitDx=0;exitDy=0;exitPerimeter=0;" edge="1" parent="1" source="SzQSZSZH6rv7SFYVgMxc-19" target="SzQSZSZH6rv7SFYVgMxc-14">
          <mxGeometry relative="1" as="geometry" />
        </mxCell>
        <mxCell id="SzQSZSZH6rv7SFYVgMxc-19" value="" style="shape=cube;whiteSpace=wrap;html=1;boundedLbl=1;backgroundOutline=1;darkOpacity=0.05;darkOpacity2=0.1;size=20;flipV=0;flipH=1;" vertex="1" parent="1">
          <mxGeometry x="384" y="350" width="30" height="70" as="geometry" />
        </mxCell>
        <mxCell id="SzQSZSZH6rv7SFYVgMxc-21" value="" style="endArrow=classic;html=1;rounded=0;fontSize=12;startSize=8;endSize=8;curved=1;exitX=0;exitY=0;exitDx=0;exitDy=23;exitPerimeter=0;entryX=0;entryY=0;entryDx=0;entryDy=11;entryPerimeter=0;" edge="1" parent="1" source="SzQSZSZH6rv7SFYVgMxc-11" target="SzQSZSZH6rv7SFYVgMxc-18">
          <mxGeometry width="50" height="50" relative="1" as="geometry">
            <mxPoint x="250" y="360" as="sourcePoint" />
            <mxPoint x="300" y="310" as="targetPoint" />
          </mxGeometry>
        </mxCell>
        <mxCell id="SzQSZSZH6rv7SFYVgMxc-23" style="edgeStyle=none;curved=1;rounded=0;orthogonalLoop=1;jettySize=auto;html=1;entryX=0.974;entryY=0.582;entryDx=0;entryDy=0;entryPerimeter=0;fontSize=12;startSize=8;endSize=8;" edge="1" parent="1" source="SzQSZSZH6rv7SFYVgMxc-13" target="SzQSZSZH6rv7SFYVgMxc-19">
          <mxGeometry relative="1" as="geometry" />
        </mxCell>
      </root>
    </mxGraphModel>
  </diagram>
</mxfile>
